/* XPM */
static char *_14c980c1ab949ea9ce094d276613af9[] = {
/* columns rows colors chars-per-pixel */
"64 64 133 2 ",
"   c #150E03",
".  c #171000",
"X  c #1D1605",
"o  c #1E170A",
"O  c #1F190B",
"+  c #231C0C",
"@  c #241D13",
"#  c #28210F",
"$  c #272011",
"%  c #2B2414",
"&  c #2F2816",
"*  c #2C2519",
"=  c #2F2818",
"-  c #302917",
";  c #332C1C",
":  c #37301E",
">  c #38311F",
",  c #342D21",
"<  c #373021",
"1  c #3B3424",
"2  c #3F3826",
"3  c #3C352A",
"4  c #3F3829",
"5  c #403927",
"6  c #433C2C",
"7  c #443D32",
"8  c #47402E",
"9  c #48412F",
"0  c #474030",
"q  c #4B4434",
"w  c #4F4836",
"e  c #4D463A",
"r  c #4F4838",
"t  c #504937",
"y  c #534C3C",
"u  c #57503E",
"i  c #58513F",
"p  c #544E42",
"a  c #575040",
"s  c #5E5747",
"d  c #5D5645",
"f  c #5B5443",
"g  c #5F5845",
"h  c #5F5846",
"j  c #5F5846",
"k  c #5E5649",
"l  c #5B544A",
"z  c #5F5848",
"x  c #5F5848",
"c  c #615B45",
"v  c #605946",
"b  c #605947",
"n  c #615A47",
"m  c #625C46",
"M  c #635D47",
"N  c #605947",
"B  c #605949",
"V  c #615A48",
"C  c #625B48",
"Z  c #625B49",
"A  c #615A4A",
"S  c #625B4B",
"D  c #635C49",
"F  c #635C4A",
"G  c #645E48",
"H  c #655F49",
"J  c #645D4B",
"K  c #655E4B",
"L  c #61594C",
"P  c #625A4D",
"I  c #635B4E",
"U  c #635C4C",
"Y  c #645D4D",
"T  c #655E4C",
"R  c #665F4C",
"E  c #665F4D",
"W  c #655E4E",
"Q  c #665F4F",
"!  c #635C4B",
"~  c #635C52",
"^  c #67614B",
"/  c #67604E",
"(  c #67604E",
")  c #69634D",
"_  c #68614E",
"`  c #68614F",
"'  c #68614F",
"]  c #676050",
"[  c #676050",
"{  c #686151",
"}  c #696250",
"|  c #6A6350",
" . c #6A6351",
".. c #6A6353",
"X. c #6B6451",
"o. c #6B6452",
"O. c #6D6653",
"+. c #6C6555",
"@. c #6D6654",
"#. c #6E6754",
"$. c #6C6457",
"%. c #6D6656",
"&. c #6B6453",
"*. c #6E6852",
"=. c #6F6953",
"-. c #6F6855",
";. c #6F6856",
":. c #6F6856",
">. c #6E6659",
",. c #6F6858",
"<. c #6E6859",
"1. c #716B55",
"2. c #706956",
"3. c #706957",
"4. c #706959",
"5. c #716A58",
"6. c #726B5B",
"7. c #736C5A",
"8. c #766F5D",
"9. c #746C5F",
"0. c #766F5F",
"q. c #736C5B",
"w. c #77705E",
"e. c #78715F",
"r. c #777060",
"t. c #7B7464",
"y. c #7E7669",
"u. c #847D6A",
"i. c #867F6D",
"p. c #827B6A",
"a. c #88816F",
"s. c #878070",
"d. c #918A7A",
/* pixels */
"- - 6 y q 5 < * ; < 1 p L L k , + % % + % % + + % ; ; < w T z 6 q y F %.| c c / d t w y y 6 ; - < < < < < - - ; < 5 w f y 5 ; % ",
"y q r p r r p y 8.8.L f y p L w f f y r y 6 6 y ; 6 y B %.5.B w 8 y f u i d f t 9 5 q d | T B K B d f B B f y w y y y y y r r y ",
"; + + + o + * ; %.y.>.f q 7 y 4 y q 7 r y q y 8.y w q 6 6 q y f i B c u g ;.| y f i f T T f y f B z B | %.z w 5 6 1 < ; ; ; 4 q ",
"1 * - , * ; , ; * p p r r r y 6 f y w w y r y %.y q q w q 6 7 y y y t w u K B u f f f d f y y f f f U %.%.f 6 < < ; - ; ; ; 1 6 ",
"5 ; 1 6 6 6 6 5 r %.f q q q q 5 y f y q a U U U y q w y y q q y w 6 6 w y w y f d d d f u y f F d f d B f r 6 5 < , < 1 1 1 5 q ",
"y 0 q y y f B B z 5.y 6 r 0 6 5 6 y w 4 r k y q y 0 5 q w w w y i w t d f w w c | ` T g u y y i B f y y q 5 6 q 6 5 < ; - % - < ",
"d q 9 w w i T T 2 w - - w 6 6 w y d y 5 6 6 < - 1 5 w a d a w q w q w u y w q y y f f d d d f f ] B d f y w 0 0 q 6 1 ; - = ; 4 ",
"8.B d B B ` 5.;.7.5.< # ; X . % + % % ; 1 1 1 q 5 1 ; % % 1 w y 8 w y y i f u y f d B F c f y q y y y d d w ; % % @ $ % - < 6 y ",
"B t 9 5 F g | 7.d 5.7.` 7.i.7.q - < 1 1 1 6 w y < 1 1 6 6 % X % # % & - 1 w f g : % 1 ; % > : > 1 ; < w d f 6 - 1 < < 5 w y d B ",
"5 1 6 5 F f f u d ` / B X.w.g > q q 6 1 4 6 7 6 q 6 5 0 y 5 < 5 : 1 6 8 w f g g c y f q < 5 > ; - ; 1 7 6 1 < ; y q 7 6 6 6 5 4 ",
"1 6 w q X.c f y T K F K ;.*.y : 6 5 1 < 5 q r w y q 6 q a w 4 6 1 6 w w t y w q y 9 y w 6 y w 9 6 0 w y q 6 6 q 7 6 6 5 5 4 1 < ",
"6 9 w 5 c d g y B f f T O.F w 1 6 6 5 5 6 r y y q q 6 w f w 4 5 w y i u y y w 6 y q u w 9 y q 6 y w q r y y w q q q q 7 6 4 < ; ",
"9 w w 6 G c ^ G ` m K *.2.m t w u d d p y r w q q w q q y q 6 q 6 9 q q 9 q 6 5 y q f y w f t q y w q y y y y r 4 6 q 6 6 q 0 5 ",
"6 8 t t *.c m m K i i m K i 9 8 6 r y y y y y y y f w 5 5 1 < 6 5 6 q q w y y y 6 5 u y w u t w 5 0 r y q 6 0 y 1 6 6 1 1 6 6 5 ",
"6 2 w y *.t 9 w w 5 1 6 w 9 1 - % ; < 1 1 6 6 6 q q 5 < 1 1 < 1 + % % % ; 1 5 5 w w F f q w 6 2 5 6 6 0 5 1 6 w B T d q 1 1 1 ; ",
"| d ` 2.u.f t i d w 6 w c ` i 6 < < - % % % + X + % - 1 y a w w w t y y y d c d 5 6 T T f T K T 5.U f d T | T B d T B y y T ,.,.",
"y q 8 q 8 2 q f 8 f F f u g f q ; 8 q 9 6 1 - ; q T | g K O.X.X.8.K ` | y y y 8 6 6 w i d f f f 1 y y 1 < 5 6 q 0 4 1 6 w w y y ",
"y 6 1 6 q 6 6 q ; 5 0 5 5 q w 0 q 1 : 6 9 : 1 f w | 2.B f y y B g t y f t w t 5 6 5 5 6 q w y f 6 1 - % % - ; ; q q w y y q 6 6 ",
"6 1 1 0 w q w y 6 0 q 0 6 5 4 4 q 1 < 6 q ; % 6 y c B f y w w f g y w w 6 6 6 ; 1 1 1 5 5 5 q y 5.q 4 q 0 q 6 ; 6 w a d y q q w ",
"y y y y q 6 q a < < 6 y y q 6 6 9 y t q w 9 > - g d u i B f y i w 9 5 1 1 6 q 9 < 1 6 w q 6 9 w d 5 r T d d y % q y z d y w y d ",
"% % = ; 1 6 r f 1 < 5 r r 4 < < 2 w 6 1 6 w q q K / B B K f y d u f w 1 > : ; ; < 1 5 9 8 5 5 6 6 q %.y.5.t.8.q 5 q y q < - ; < ",
"1 = % 4 k 8.t.8.z a a d f y y y 8 8 9 y d w 8 y 2 i F g f y i %.T 2.K w q 5 ; % 1 ; % % % % - < 0 d t.t.%.r.r.f < 6 w 0 1 ; % % ",
"w 5 < 1 0 r q 4 r r y f T %.q.8.g K / O.` w < 5 + 6 y y f B ` 7.y B y w T 2./ T y 5 - % % - < 5 1 q a y w q 6 1 w a d f f f y w ",
"w y a y q q q r 6 6 6 6 0 0 5 < u ` f < % # X X ; 6 q w | t.8.` T | w 5 K t.7.8.5.d q 6 q w y y w y y d U p w y y y w 0 q y y w ",
"6 5 < 1 0 0 q f q q r f a q 6 6 < f % - q - < - + 1 6 f / %.O.y f d w q c F B 5.i y w y t q 6 6 q q f d y r f y 6 r y y w 0 6 6 ",
"1 0 q q q 1 < 6 0 q y f y q w y w c - & q 5 9 9 < : y y ;.F | F t t q w f g c ` w f | | y 5 9 f w q y y y y y y 6 5 1 5 q w w q ",
"1 5 4 6 q 6 4 q q w y y r q y z f B 6 1 t y w y / 8 2.y %.y y d d i f c d K ` B i i g F y 5 5 t q 6 6 q y y y q B a q 6 6 6 4 1 ",
"y 0 ; ; w d U %.6 0 q q 6 6 q r f T | d T T y f f < | q c f u O.T d T ` i d T y %.B d c u 8 6 w y y w w y y q 0 w q q 6 5 1 4 6 ",
"q 0 ; % < 6 w f w w w r r y y y 5 y | T B d w t y q | q q g 9 f c f ` / y d | f y f B d q ; < 9 y d y w y 6 1 6 T y q q q 6 q w ",
"1 y y 6 - + + - 1 1 4 5 q r w 0 y / w.t.8.5.w.8.5.;.8.f 9 f 1 1 % : 6 5 < 6 q 6 8 y d f w 6 < ; % 4 < = < ; - q 8.y = % ; ; = % ",
"q ~ | y 4 % % ; X + + + + = - % 1 y w c d f 7.F c f B y c f g f 6 d T g g B d g T 5.5.T B K y 1 + , % X - ; 1 d t.z q w f f f f ",
"6 w 6 - ; ; ; < = ; ; % % ; < < q d w ] | B p.B y 6 w 6 | 9 T d w 5.8.T ` g y y K u.a.K q w y q r d 6 - 6 q y 8.T B B B y 4 4 w ",
"1 4 1 ; ; 1 1 1 1 4 6 5 < ; 4 y e p p a l ~ &.6.p y a U B y y p w T d q f f 6 < 2 2 T w 6 6 y f 5 w r + a 6 y T y w y y y w ; 6 ",
", 1 1 1 1 4 4 1 1 < < < = % 5 f e q e k ~ l L <.p y y a f y w q f / y 6 y i q q 5 q ;.y w y f w T f q % ,.B d y f r y q w 0 - 6 ",
"; 1 1 1 1 4 1 < ; ; 5 y 0 ; - 6 r 7 q ~ ~ p p ~ f a y y a d f r T / t 6 y y 6 w y f e.w q f T y 6 5 5 - &.d y q r 0 q q w 6 * 1 ",
"4 1 1 < < < < , 6 ; ; 1 ; + = q e 7 q l l e e p y p r 6 6 w q 5 B B y i O.B t d T d X.1 ; 6 u y f y w < d r w 6 q 6 y y y 0 % - ",
"0 6 1 < ; ; < 1 ; $ $ ; = + % 4 p p p p p p p e q y y 6 1 1 4 < 5 6 1 q B f w c f q g 5 ; % : 1 B q < - y a y q q 6 y y y 0 % - ",
"< - % % % % = ; ; < 6 y w 1 % % o @ @     O O     O @ + O + % % 5 6 > > q 6 6 d f w 5.T f 5 ; ; % % 1 q y q 5 ; < - < 1 q q < q ",
"] T ] ,.%.T z B d a w 6 4 4 0 q * * % @ @ * * @ % = 1 0 q w y f B | y 8 t w y %.| f t.5.5.c w 1 1 w &.r.d 4 % + - % - < q r 6 d ",
"y y f T U y 6 5 6 6 4 < 1 0 r r 3 , , 3 3 1 < 3 4 1 5 y a r w y t c y 5 q q y X.5.g %.y d F f 1 f w y z a y w 6 q 5 q w f a 0 f ",
"f 6 0 B T r 0 y a q 6 y 5 1 y 4 , < 3 7 7 4 < ; * 0 4 5 q q y w f g f u y 9 9 f / f y u y y d f y f a w q 6 5 1 0 6 q w 0 q w 6 ",
"q 4 0 d U a y z 5.| z f 6 4 r 1 q 3 3 7 7 3 1 3 4 7 1 q f y a d y y w w y 9 5 w d y y f f d g f 0 r y w q q r y < < 0 y w w r 6 ",
"6 5 0 y y q q y 6 y r q 1 1 r 1 e 3 3 7 q 4 3 6 1 4 ; y U w w y f f y i F f q q w q w y y y w 8 6 y d f r w y y 6 5 w y w q 0 1 ",
"w r y r w q w y r ,.,.B r y z q 6 , , 7 e 7 3 4 6 r q U ,.y r r 8 q 9 w i w 1 > 8 q 9 8 w w 5 < ; 5 r r q 6 1 < | d f y q q r q ",
"+ $ % + + % ; < ; f a 6 < 1 w 6 r 4 4 e p e q e , r 0 r a q q 6 w f f f B f q 9 X % + X % % + + 1 6 q r y f a y 6 ; = % + + % $ ",
"1 1 < < < 1 4 6 1 U a 6 4 0 d z , * @ @ @ @ * ; ; 6 = % < < 6 4 2 w w q w 8 1 5 5 u w 6 y d f T z d a p z %.5.%.r 6 6 6 1 1 1 = ",
"y w q w q 4 < 1 r r.] y r 6 q r 7 7 4 , , 3 6 7 a a < 4 y y a y y F g y f i y u u 8.X.i ` O.| t.T B f y y f d d y w y a y y w 1 ",
"T f f L z w 5 5 ; U L z U y w r 3 q q 4 3 7 q 7 q.L 6 a ,.B d f d / d y f d f f f t.%.y f i y / z T T d f f f f y w y z B | &.B ",
"y 6 5 q y 1 1 f q d a d B y y q q 7 6 7 7 6 6 5 U f y y w y | i.T T d z U f y f w 8.f d z r T y y y f f y y B z f y q 0 w y y w ",
"0 a f y y w 6 q w y 0 y B y y q w w w y r q 6 5 1 5 q y y f T 8.a B | %.%.y 1 < < B w a d r B r d a f f q q y q 1 1 1 6 y y y w ",
"= 1 1 ; ; - ; 5 5.T 5 q d y y w 1 4 6 6 6 1 < ; % 1 6 q 0 q q 7 6 r y y y 6 1 6 < y 5 0 r 7 y 6 w 6 6 5 ; ; ; % % $ % % ; < ; % ",
"5 ; $ % % $ 4 %.d.0.6 5 w 5 6 6 1 6 6 6 5 5 1 1 < 0 q < % % % % + % $ + % % - 6 6 y - % - % ; - < % % - % - - $ 5 1 ; ; < < < ; ",
"r 5 ; ; < ; q t.s.8.0 4 6 ; < 1 - ; ; % + $ % % < q q ; + % - ; 1 q r y a y r y %.5.f w r q r y 4 ; ; 1 1 5 6 < 0 6 5 6 0 q q 0 ",
"1 q 0 1 1 1 1 q %.5.f y y q q 0 y f y 4 ; 1 4 4 1 6 q 5 ; - < 5 ; 6 q q y y q q w y q 6 q 6 1 6 w 5 6 0 6 0 6 < ; < 1 6 q 6 4 < ",
"6 y y q 0 5 1 5 f 5.z f d y f r y y w < % ; 1 1 6 6 6 6 5 1 < 4 4 q 6 5 y f y y 6 w w q q 6 1 q r 6 q q 6 6 6 < 1 4 6 w w q 5 1 ",
"y q 4 0 q < < f w T y 6 6 q r 6 6 w 0 ; % ; 4 1 0 1 ; 4 6 4 1 5 4 q 6 6 y y q 5 y y y q q 6 1 w y q r y q q w 6 < < 1 5 6 q q 0 ",
"r 4 6 q 5 < 5 7 y y w 4 5 w r q y y q - % ; 1 < q 6 1 ; < 6 q 6 d q - y U q w 5 y y y w w r y y f q y d a w 6 ; 1 < 5 q 6 6 w r ",
"5 < 4 5 1 5 6 < y r q 6 q y f f y y q ; % , 1 1 6 q q 0 5 1 < ; 1 < ; y B r y w d d f y w w w w z r q 5 - < a &.f q 6 6 1 1 5 4 ",
"+ % ; , < 0 6 % w 6 5 6 q w y f y p y q 6 q q 6 ; < 5 6 1 < 1 7 d U f z y 1 1 ; 6 5 5 5 6 6 6 6 y q 6 < % < d 5.f 5 ; - % % % % ",
"q y U | T &.| a y 6 5 6 q 5 6 q T %.>.T a q 1 = $ + X + + % 1 y q.t.5.U y q y y f y y y y 6 < ; f 0 5 6 q y f y y 6 5 5 1 1 5 4 ",
"5 6 a B y 5 1 1 w 6 5 q q 5 5 0 r a d f y w 6 1 f w 5 5 6 w a B < < 1 % % - ; ; % - 6 d &.&.] T ] y 6 q y d f 6 q 6 r a w q r w ",
"1 1 y d q ; < 5 5 1 1 6 q 0 6 q ; < 1 4 6 q y y 0 6 5 5 q q 1 % < ; 1 ; < 6 < < 1 1 6 a z y w q y w r w q w w 5 1 1 w p q 5 5 1 ",
"1 1 r y 6 1 6 q 1 5 6 6 6 q 0 5 q q 6 5 1 1 1 5 5 q q 6 w y 6 % ; % 1 5 q f w p w 6 6 y d f d B q w y y 6 6 q 1 q 6 y f y q 6 1 ",
"q y f w 1 6 q 1 w y y q q w q 1 6 0 w y y r w y w y w 1 6 y w ; d q y y y B y T T y 6 q w w y z &.d y q 5 w a w w 5 0 y r w q 5 "
};
