/* XPM */
static char *_30ef69950d845c2fb3fd509acb7fbf5i488VHHKLLGVuIQO[] = {
/* columns rows colors chars-per-pixel */
"50 50 200 2 ",
"   c None",
".  c #180F0F",
"X  c #1C140F",
"o  c #1D1B0F",
"O  c #160E12",
"+  c #180F11",
"@  c #171111",
"#  c #1B1311",
"$  c #1C1B11",
"%  c #21170F",
"&  c #241A0F",
"*  c #291D0E",
"=  c #221611",
"-  c #251911",
";  c #2B1B12",
":  c #321E14",
">  c #391F11",
",  c #1D220E",
"<  c #1F2B0F",
"1  c #1E2311",
"2  c #23230F",
"3  c #2C230E",
"4  c #232C0E",
"5  c #2B2B0E",
"6  c #34260E",
"7  c #342A0E",
"8  c #3B2C0F",
"9  c #38270E",
"0  c #25320E",
"q  c #2B340E",
"w  c #2D3B0D",
"e  c #32340D",
"r  c #323C0E",
"t  c #3A3A0E",
"y  c #222311",
"u  c #2B2312",
"i  c #252B11",
"p  c #2B2C11",
"a  c #352114",
"s  c #3B2316",
"d  c #352B12",
"f  c #3D2418",
"g  c #3C2A14",
"h  c #253111",
"j  c #2B3210",
"k  c #2C3910",
"l  c #333511",
"z  c #323C11",
"x  c #3D3413",
"c  c #342F28",
"v  c #38322C",
"b  c #463B0D",
"n  c #422616",
"m  c #452916",
"M  c #4B2A17",
"N  c #432618",
"B  c #462819",
"V  c #4C2B19",
"C  c #522E1A",
"Z  c #542D17",
"A  c #453315",
"S  c #55311A",
"D  c #5C351A",
"F  c #5E391A",
"G  c #583317",
"H  c #61371A",
"J  c #643B1B",
"K  c #683D1B",
"L  c #443F2F",
"P  c #5D3C22",
"I  c #35420E",
"U  c #3A440E",
"Y  c #3D490D",
"T  c #3D4710",
"R  c #3D4A10",
"E  c #364110",
"W  c #29603E",
"Q  c #434D0D",
"!  c #47490D",
"~  c #47520E",
"^  c #4A550D",
"/  c #4E5A0D",
"(  c #515C0D",
")  c #585F0F",
"_  c #454B10",
"`  c #454516",
"'  c #594B14",
"]  c #495611",
"[  c #535911",
"{  c #754E1E",
"}  c #615A11",
"|  c #685B16",
" . c #7B551C",
".. c #57620E",
"X. c #5A640D",
"o. c #5D6A0D",
"O. c #5E6C13",
"+. c #586512",
"@. c #5F7319",
"#. c #626D0D",
"$. c #65720E",
"%. c #6A760D",
"&. c #6E7C0E",
"*. c #6B6215",
"=. c #636C12",
"-. c #7B631A",
";. c #776B17",
":. c #637110",
">. c #6B7611",
",. c #687719",
"<. c #747313",
"1. c #737D13",
"2. c #7B7715",
"3. c #774D20",
"4. c #755521",
"5. c #695538",
"6. c #725835",
"7. c #796E2F",
"8. c #73703B",
"9. c #716B2E",
"0. c #125855",
"q. c #15665B",
"w. c #2F744D",
"e. c #2C6848",
"r. c #197368",
"t. c #247D68",
"y. c #625449",
"u. c #715540",
"i. c #6A5D52",
"p. c #84691A",
"a. c #877719",
"s. c #907C18",
"d. c #8B4B29",
"f. c #8D5B23",
"g. c #87552A",
"h. c #985A27",
"j. c #A85C2B",
"k. c #B25D2E",
"l. c #A35A32",
"z. c #866A29",
"x. c #9A6225",
"c. c #9E6A24",
"v. c #907221",
"b. c #907A2E",
"n. c #8E6235",
"m. c #9F6636",
"M. c #9C7E35",
"N. c #88732B",
"B. c #A16626",
"V. c #AB6429",
"C. c #A8662A",
"Z. c #B3632C",
"A. c #B9632D",
"S. c #BB6B2E",
"D. c #AE732A",
"F. c #A47928",
"G. c #BB712E",
"H. c #B67A2A",
"J. c #BA7D29",
"K. c #B37E27",
"L. c #A4693A",
"P. c #B76831",
"I. c #B97839",
"U. c #A6763C",
"Y. c #C2742F",
"T. c #C27531",
"R. c #C77C31",
"E. c #CA7D32",
"W. c #896749",
"Q. c #877B4C",
"!. c #9C7846",
"~. c #806E5E",
"^. c #8C735B",
"/. c #87715B",
"(. c #9B7A59",
"). c #9D6848",
"_. c #A26B44",
"`. c #B27842",
"'. c #847464",
"]. c #917F6E",
"[. c #917E70",
"{. c #75830F",
"}. c #748312",
"|. c #7B8315",
" X c #7B8B14",
".X c #7C841A",
"XX c #7D8C18",
"oX c #75821B",
"OX c #60832C",
"+X c #1A8177",
"@X c #47834E",
"#X c #84841A",
"$X c #828B1B",
"%X c #90811A",
"&X c #829115",
"*X c #B48327",
"=X c #A48333",
"-X c #C1802C",
";X c #9B8675",
":X c #988675",
/* pixels */
"                                                                                                    ",
"                                                                                                    ",
"                                          r.q.                                                      ",
"                                          q.0.  +X                          ;X;X:X                  ",
"                                    @Xt.  e.W OXw.                        ;X;X:X].i.v               ",
"                  E.G.v.1.XXoX X   X X,.=.>.>.}.@.O.XX   X1.XX X.X=.>.z.(.;X[.'.y.v c               ",
"              E.E.T.P.V.V.1./ X.#.<.2.a.*.| 2.$./ #.{.+.X.o.<.;.#Xz.v.K.=X=XM.L.5.L ` [             ",
"            .X*X-XI._._.).f.p.g.W.L.Y.T.A.A.Z.3.'  . .} { h.Z.Y.I.^.I.E.C.J.R.`.'./.;.}.[           ",
"            *XM.Q.b.!.'.(.m.Z.^.'.~.L.S.k.l.u.y.g.f.f.4.d.j.A.Z.S.Z.L.L.j.G.R.I.8.6.9.oX}.          ",
"            J.!.'.W.B.N.F.x.j.L.n.n.D.D.3.d.7.5.;.|.p.6.5.f.h.B.H.C./.Q.v.a.a.2.c.U.'.7.+.          ",
"          #X%X2.z.h.G.R.S.Z.V.2.=.<.%.%.O.$X&X}.#.}. X>.1.>.<.%.1.X.$X&Xs.S.R.F.-.-.,.|.x           ",
"            $.$.%.#.H.R.R.V.x.|.&.#.&.%.#.&.|.o.#.o.&.{.{.}.o.%.&.o.%.}.a.B.x.-.../ =.$XA           ",
"            ' } ) ~ _ ` *.1.|.&X:.X.#.#.}.O.! ! r ( %.{.&X}.( $.X.XX:.^ b I w Y Q ..A F M           ",
"            F S s i R w +.( / / ^ ( ( Y r w E t ^ ..#.^ ( ^ / ..Q I w U 4 4 r Y l a C J J           ",
"            J H B ; 5 < ` _ 4 4 Y ( ] z 0 I I I o.^ [ q 5 r / ..T 4 w U 4 E d d l s D J J           ",
"              J D V : d N = 1 , 5 / R j q k q 5 T i 3 9 6 3 ^ / q q q e 5 t l p j g D H             ",
"            F C m s M H V ; o $ 2 z 0 q I Y U Y h U Q b 3 8 k w i I U U Q 0 1 0 m V J K             ",
"            K H S f D J M : , h 1 $ u 7 e ~ I 0 4 I ^ l h 4 y y # 5 Q Y r 2 r z D C H J             ",
"            J J J B D J : ; , h 0 # 9 d $ k , 3 3 4 t i < q 2 9 $ o i y y i U _ J D H               ",
"            G D J M J S # : u i 4 X y j 2 o 1 6 3 y ; a i p u 8 i 2 y $ o p x A V S S               ",
"              D D n F M # X u # O - y i i - & 9 l g : u u ; 2 - 1 h - # - d N ; : B C               ",
"              F C s m n = # $ # O = - - a a * 6 s : - $ 2 y , y X u f # ; V B a n C M               ",
"              C S D M C ; # - = O X @ # ; * 9 3 a - @ - & @ o # # : ; % a M V N C S C V             ",
"              H J J M n # X ; # O O O # - 8 * * ; # @ & 3 $ O O O = O - a B f B S H D Z             ",
"            H J J D C s # X ; # O # # y 7 6 $ & 6 # 1 5 p 4 @ O # # = = ; ; ; m F D J D             ",
"            K K J S J a - ; ; X - ; # y 6 & X 2 e # y 5 9 i X O X # # X - % ; C K J J V             ",
"            H J H S S ; s f ; = ; - @ @ 3 $ # $ 6 # % 3 8 2 # # - a a - X ; ; S J K S V C           ",
"          J J J D M s : V B ; : : = # o 7 1 # & ; # = & 6 $ # # : s B : ; ; = n V f n H J           ",
"            K J D C : f B f ; n s # X y 2 & O - $ # # 6 3 # X # f a B - ; ; ; C C S S S G           ",
"            J J D V f B B s : f ; X - - $ - # * $ $ 3 ; - y o # a ; ; # # - f F V D J J             ",
"            K H D M D D D s B a = X : n ; & $ $ # 3 5 @ # & O = f f X # # - s m C S H P             ",
"            K H J S J H H > C s = # s s # & X , - 5 R $ O # O ; s - X ; - - : s C C C               ",
"            H J J V J K D s M : # = : - # y X h 3 0 r y O O # ; ; # ; ; # : B M S C s               ",
"            M C C M J J F : ; - O - - % = = $ o ; u i # O O = ; - & ; = ; n C C J J H               ",
"              C C B m S n # # # + - ; = s : # % a a - O X # = ; = a s # ; f M n M S B               ",
"              V C S B V ; @ # = O X # = a ; % s V a # # - # # # # : : % : M M f V C V               ",
"              S D J V V % X ; # O + O # = # ; f B - # = = O O O O ; # - s B N N C J S C             ",
"              J J D V s # # ; # O # @ # X # ; : ; @ O ; # O X # # X # = : : : m D D J D             ",
"            K J J S F a X = ; X = = # # # # # - O O + - # = - # X . # X - % ; V J J K S             ",
"            J J K S D ; : s ; % ; ; # = ; = X X @ O # ; % - ; # = ; ; X X ; ; S J K H M V           ",
"            J J S M f : M n ; ; : = # : N N ; X # = ; ; ; : ; # ; s B : - ; = M D M n F J           ",
"            K K D V ; a B B ; f s # ; s N B = @ @ ; s ; a f = # f s B ; ; ; = f M m M H J           ",
"            K J D C s B B f ; n : X ; : a ; # # # : B : f s # = a : a X = - s D V D J J S           ",
"            J H D m C S V s f a - X : s ; X O # = N N s a ; # = f a # O X : B S M S K K             ",
"            J J D V J J D a V s # = a s - - - # - a a B M - X ; f : # = ; s n M V S S               ",
"              J J S S S F s M : # # a ; # ; = ; s C B V M ; # ; a # ; N V D J J D                   ",
"                S S J J S s s ; O = ; = - ; # % M C M V s # # - - s s S J H J                       ",
"                      H D m C V : ; ; =         V C :       - ; ; f                                 ",
"                                                                                                    ",
"                                                                                                    "
};
