/* XPM */
static char *result[] = {
/* columns rows colors chars-per-pixel */
"50 50 58 1 ",
"  c #7F8F58",
". c #838F52",
"X c #849155",
"o c #85935B",
"O c #89965D",
"+ c #8C995E",
"@ c #919B5D",
"# c #99A15C",
"$ c #859662",
"% c #8A9761",
"& c #879966",
"* c #8C9A64",
"= c #869A6A",
"- c #8D9D6A",
"; c #929D65",
": c #929E6A",
"> c #989F68",
", c #8F9F71",
"< c #919F71",
"1 c #8FA16D",
"2 c #95A166",
"3 c #9BA365",
"4 c #9DA867",
"5 c #94A26C",
"6 c #9AA46D",
"7 c #9DA86E",
"8 c #8FA170",
"9 c #95A472",
"0 c #9AA673",
"q c #97A975",
"w c #9CA975",
"e c #96A579",
"r c #99A779",
"t c #97A979",
"y c #9DAB7B",
"u c #9FB07E",
"i c #A2A76B",
"p c #A1A96E",
"a c #A1AC74",
"s c #A2AE7C",
"d c #A6B077",
"f c #A8B076",
"g c #A4B17E",
"h c #A9B17D",
"j c #9EAE81",
"k c #9FB181",
"l c #A1AF81",
"z c #A4B283",
"x c #A9B584",
"c c #ADB887",
"v c #A5B589",
"b c #AAB68A",
"n c #ADB98C",
"m c #B4BC86",
"M c #B1BA8B",
"N c #ADBB91",
"B c #B2BD92",
"V c #B3C094",
/* pixels */
"zafplzsxda3dbznbzghzgxbfup7hhhgubunvkkgyq244azuzV4",
"xdhaappaa7waxubnvznzhczxgp7ddhuukuzuzkuyu34puuuuq7",
"xzxcf7aip4p7ssznnbnbzVzgugughuu7uzkykuuuq77uuuqwqu",
"shazha3pii7iadvxVnVzhVczdzfhckudzzkvNkzuqgg2q7144q",
"sasnnha0apiasasnVVxzMczhzhdzckqqzuzbbvzkuuuuwqq77q",
"aslzwwsza74aaasvhuvnVMxhdwugggwuw7uznudxuuty4uuvu7",
"a<srlwayNzdww7zchxhchBnhu7yugzu477uyuguhuqwuuugkuu",
"0sBzvvszbzkwydznvnzhxszvdwbk77uw4wyuuyugguxzqkuuuu",
"shsall6slbljsvxvbxlaa0sMcdvdzwguwwuuq6wqquzhxzkyuu",
"a6a>sslrlvjvblnnhxahaasnnnzzkygyuvuywwquuuuzzvkkuu",
">asasabvvlvNnvnMbbsxsszxznxzsuyswwuuuuguuqywkzkuq4",
"lMsxlliaslbNnNNlxMnczsssshgzggzy75yzguuqqquqyugqqq",
"aaalbxh0lxbNNbvvNnxNcsssxxvxvzhwq5wbzuyywgudyuu7ww",
"arlbxi0lbbxbnbbMbxMlawzashsshqwww2uzzvzyqdduuzyqd7",
"laslhsi0llvvbMzbbxbxsa0paaa320w526dyknvgwwzyqwywzw",
"apalbs<ssllllbxsslMxzyh667ppi43w7752qhgkrwsyyyuww2",
">6lsaw6a0wgvszzrazclshzzs2iii@apa6-:2hhyyyr9yqt2+2",
"0aba0lyw43wwwywyslslyyyww33pi30y7;@55yswyjgr512222",
"aablhbrsww0w075lzz0wwyysy654i09227320wysryyt2+2226",
">slbblyl6s092>29rr0yhyw0w3224ia70w62swzwyzdyw55q22",
"s0hly5eg0060:306ywsgw02:0362;333355wywyszyyuw55w22",
"llh>6:*9<:060ww90ywys66:::62;622722wwvhvgky17qqrq1",
"ah0>225500590wrwryyyzsw650066wa:22200lzzyyqq555wy5",
"i0a<y62059jjysw3rayqzzs0y6wsz7w0y750:szzyyq89q1171",
"0>>ssa<0as<59wywslw0s60llsyyds9y0w529yvygyyqqO+oX5",
">>ra<0w<sw06:505llsa05lzszwrysyq959sssvswywt125*.2",
"l><r0<0lxly0:+5yzllbzszdbssyzyyww5zesznsq7wdyq52@@",
"><ar6<0ysyys>:0yzzzxzskyssyyygayyzvrvzhjuuyy7q&23;",
"6ay0>>;0yrlhy09rlyzzyqr5t9tqgwyyyzvykr9wzww6qq*9q5",
">ly>>:::rjvxvvr9yrshywwt9t9q55q9yyy90w905uwww52552",
"s0ws>;;:ejyjyh9999zvywyt29r9591yrzsyrrssu7uuy51259",
":s:>;:00jrjy5uqwwqyr9y55-599989jvljvsyqgyuwyu-255q",
"wss>;;:ylr0:6wsr9w9ywy>O+*;*<,<lljlslreyrewyr:-:5*",
"r<;;%%<lw:>60;:0-5095*OOX:*-<:<jrlvj<<<ejrrlr9-2w$",
"wh6>60srw;@>05:-*t99*;%+++**---9yr<r<<$99lvv9r-:%*",
">>>66<<<:0O%9-9*9wyw22:++;%*<-<<e99990**=9<lrjrr9<",
"0i0>>>:&>0;;*9*09sw99*:;;@::*<*::99**:;:*%$-199,,e",
">>>i>>>%:00*;:wsyss90%:>;;0::<9*--$**&%:>--*-1=,ee",
">i>p>0>::*<w;;syzsywr::0:r9e9-e09-$$**:;69$*$8=*,e",
"s<><;>r>:::aaww0zy00r5>000:-900r*-oo%:;50--*5= **,",
"0f>@+::9->%rsr00y9<906>:00::yy<:-*O.o:0y9-**&o*-r<",
"a0>@o%*0rr;ws00:yy9yr9<<0<:;09r95ooOo-9059OOO*z99<",
":a2:3:y0r020yj0rysrwywrwa:%%=998:%%>:90919OX *9-**",
"<a00r:99rrreyky0yvyws90sl>oo $99:0:99*9095*:*51*o:",
"<a0O%**590r0ryr9ylrwrww0<:o.oOol9;09=$-26:0*52*$*:",
"<;O.*9:9zslr9y0rssrwry<:&*.ooo%5<=**$=:-*:0:*:*%O:",
"**%X<<rrlxn09wyye99rs090y9O:5%-<-$&$$*+oO:09:*;**O",
"O;*%:yrwbbv0wwyr99rw9<srwr9%5:99--$*52:-:ay09:e**5",
"+OO$>0<rllllsjl09e::0yls<9r:r00y95*5995y9yry999- *",
"%:>*<<rwsrsjrr<%%<*<5ylwwwsjrwr9*--9999e9yryt-81*$"
};
