/* XPM */
static char *_3120d327c8f4d169b3e071bf1b287de[] = {
/* columns rows colors chars-per-pixel */
"64 64 189 2 ",
"   c #160C03",
".  c #1C0E04",
"X  c #170E0C",
"o  c #190E0A",
"O  c #1B1305",
"+  c #16130D",
"@  c #1E140B",
"#  c #1E190B",
"$  c #1D1512",
"%  c #1E1B13",
"&  c #1E1B1B",
"*  c #241306",
"=  c #281507",
"-  c #23150D",
";  c #2A150A",
":  c #231A0D",
">  c #2B1A0C",
",  c #331E0E",
"<  c #221612",
"1  c #2B1711",
"2  c #241A13",
"3  c #2A1B14",
"4  c #241C1A",
"5  c #2A1D1A",
"6  c #311D14",
"7  c #331E1B",
"8  c #1E2112",
"9  c #34210E",
"0  c #262115",
"q  c #2B2115",
"w  c #25221C",
"e  c #2C231B",
"r  c #2D2B1D",
"t  c #332214",
"y  c #3A2514",
"u  c #392814",
"i  c #33241C",
"p  c #38241C",
"a  c #33291D",
"s  c #3D2B1D",
"d  c #1E1E21",
"f  c #252322",
"g  c #2C2422",
"h  c #2C2923",
"j  c #2B2B29",
"k  c #342522",
"l  c #392622",
"z  c #342B23",
"x  c #3B2C24",
"c  c #342D29",
"v  c #3B2E2A",
"b  c #373020",
"n  c #3C3226",
"m  c #363129",
"M  c #3D332B",
"N  c #3F392C",
"B  c #3C3530",
"V  c #3C3930",
"C  c #412D15",
"Z  c #41261D",
"A  c #442D1D",
"S  c #492E1A",
"D  c #45311E",
"F  c #49311F",
"G  c #412E24",
"H  c #432E2A",
"J  c #443224",
"K  c #4A3324",
"L  c #403927",
"P  c #4D3826",
"I  c #43342B",
"U  c #4B352C",
"Y  c #44392C",
"T  c #4C3A2C",
"R  c #513625",
"E  c #533927",
"W  c #593A26",
"Q  c #52362B",
"!  c #533B2C",
"~  c #5A3E2C",
"^  c #443632",
"/  c #4B3631",
"(  c #453B33",
")  c #4C3B33",
"_  c #453A38",
"`  c #4B3E39",
"'  c #533731",
"]  c #533D33",
"[  c #5A3D33",
"{  c #543D39",
"}  c #5A3E3A",
"|  c #623F2E",
" . c #603E35",
".. c #48402D",
"X. c #55412E",
"o. c #5D422D",
"O. c #4D4134",
"+. c #4D423B",
"@. c #544234",
"#. c #5C4334",
"$. c #5D4836",
"%. c #54433A",
"&. c #59403B",
"*. c #5B4538",
"=. c #5D473A",
"-. c #5E4639",
";. c #5A413C",
":. c #5B423D",
">. c #5A463F",
",. c #5D443F",
"<. c #5B443B",
"1. c #51493E",
"2. c #5F4A39",
"3. c #5C483F",
"4. c #5D4A3C",
"5. c #60432E",
"6. c #604033",
"7. c #604333",
"8. c #634334",
"9. c #634634",
"0. c #624536",
"q. c #624534",
"w. c #684534",
"e. c #614B36",
"r. c #634A36",
"t. c #654836",
"y. c #644936",
"u. c #684936",
"i. c #62473C",
"p. c #63443B",
"a. c #68473D",
"s. c #604B3A",
"d. c #664B3A",
"f. c #624B3D",
"g. c #644A3D",
"h. c #64493E",
"j. c #654B3E",
"k. c #664C3D",
"l. c #644B3C",
"z. c #684B39",
"x. c #6B4C3A",
"c. c #6D4D3E",
"v. c #6A4C3C",
"b. c #704A3D",
"n. c #6C513E",
"m. c #70543F",
"M. c #4F4140",
"N. c #544641",
"B. c #5B4740",
"V. c #5C4541",
"C. c #564A41",
"Z. c #594841",
"A. c #5D4940",
"S. c #5D4942",
"D. c #5C4B42",
"F. c #5A4F48",
"G. c #5C5044",
"H. c #5D5149",
"J. c #604742",
"K. c #614641",
"L. c #614843",
"P. c #634B41",
"I. c #674D41",
"U. c #614D44",
"Y. c #624E45",
"T. c #614D46",
"R. c #614F45",
"E. c #624D42",
"W. c #684D42",
"Q. c #6A4D41",
"!. c #674E49",
"~. c #634E48",
"^. c #6A4E4A",
"/. c #645144",
"(. c #6B5343",
"). c #63524B",
"_. c #645049",
"`. c #645248",
"'. c #64544B",
"]. c #695348",
"[. c #6C554D",
"{. c #6B5549",
"}. c #6D584A",
"|. c #715240",
" X c #745445",
".X c #715444",
"XX c #735847",
"oX c #735B4C",
"OX c #695652",
/* pixels */
"j f f g g g g g 4 g g g f f f h c z z a a a a a q e a a r q e r j f w w w 4 4 g < < < 4 4 4 4 % 8 8 8 8 0 2 2 < < 3 4 2 < < 5 g ",
"f 4 % 4 4 < $ $ 4 4 5 4 4 4 4 w e q 3 3 3 4 3 2 q 3 2 2 2 2 2 3 2 % w e e e 5 i v l v v M M M m r r r z b b x x k k k k k k 5 < ",
"z a z Y +.` ) ) x x v x z c v n x x x x x x x x I I x x G x p 3 e a N ) O.) ) %.{ ] ] ] ] @.) ) L L Y ..O.@.@.@.U.,.B.U.).Z.I 3 ",
"i i x @.U.`.U.U.@.@.@.@.] ) O.@.{ %.%.%.%.%.%.%.>.B.S.U.`.B.I 3 > t J X.@.@.#.g.Q.g.i.=.=.#.[ T @.@.$.$.4.s.j.g.I.g.L.].[.S.G - ",
"t t x ] =.*.[ [ [ [ [ ] ! T T ) ] } :.:.} } } &.} :.,.L.!.J.H ; > 9 D E ~ ~ 7.x. X|.c.x.d.r.*.o.r.r.r.t.t.0.0.6.7.#.0.j.I.@.s = ",
"t s U *.4.#.[ #.#.[ ! ! ! T T T ] } ;.:.} ] ] } ] { ] ] ;.;.U 6 y C P #.t.t.x.|.c.x.u.t.t.t.t.y.t.t.t.t.9.7.5.~ t.t.v.(.(.*.K u ",
"= t J @.#.[ [ =.=.#.[ ] ] ] T T { :.J.A.:.} } &.} :.} ] &.,./ t , y F #.d.d.u.x.u.9.7.7.7.0.0.7.0.0.t.t.t.t.8.6.6.7.#.s.4.@.s > ",
"3 s @.4.*.] @.4.@.] T T T T Y I ] %.S.B.%.) ] { ] %.>.%.%.%.G ; t u P l.}.(.Q.x.v.d.0.#.0.0.*.*.#.:.p.h.a.v.v.g.W.i.=.j.E.@.s > ",
"q n +.1.%.) %.S.Z.) I ^ ) Y M n %.1.1.1.%.%.+.) +.+.%.D.F.1.n 3 q a I 4.].(.].(.Y.I.I.j.E.f.E.E.S.S.J.A.J.J.L.^.!.!.~.).D.O.z 2 ",
"4 c +.C.N.+.+.%.{ ^ I ( _ ( M n 1.1.1.1.1.1.1.+.1.+.O.O.( N e @ e a n ) %.) ) ) ) / U U U ) ) ) %.N.V.B.%.{ ] / H H v Y Y m a 0 ",
"g c ( ` ` ` ` ` ` ^ _ ` +.+._ ( ( Y Y N M N M N ( ( Y N N n z r 0 2 0 e e 3 1 3 3 1 1 1 1 3 3 5 4 5 k k 7 5 5 3 l i e e r r r 0 ",
"0 4 < @ - 2 3 5 2 2 2 3 5 4 4 4 e q 0 0 2 2 2 2 @ @ @ @ : : 2 0 z r r e e 3 5 i p i i e e e e e e e 5 4 2 3 5 i < - . O @ : : # ",
"n a 3 - - 1 1 1 * * - @ @ @ O O - @ - 3 q 3 3 q 2 1 1 2 - - - 2 2 # @ @ - - - 1 1 1 1 1 1 - - @ < < 2 2 < < 1 1 6 3 3 i a x n n ",
"D.4.%.@.@.@.] U [ [ ] T T T T J > 1 p U ) ) ) ) ) ) ] ) ) ) ) ) ) Y I Y ) ) ] *.{ { %.%.@.) I I 2 z ( 1.D.S.4.*.*.*.4.4.4.4.4.4.",
"$.$.4.s.g.d.0.7.v.n.Q.v.(.(.$.T 6 6 G ,.!.A.:.A.} } %.:.>.,.,.>.@.O.O.@.@.@.#.=.[ :.j.j.4.#.T I   : I 3.{.{.].I.j.j.d.l.$.o.o.X.",
"#.#.#.#.t.x.|.|.t.x.v.v.(.(.#.A ; 1 G >.Y.&.] ] :.} [ [ } &.} { @.@.] [ [ ! ! ! ! [ p.g.j.#.! J ; i ) E.{.(.(.v.6.0.0.0.7.7.7.7.",
"p.p.p.6. . . . .v.Q.Q.Q.Q.h.[ ] > = s 4.4.#.[ [ ! ~ [ [ #.#.#.[ [ [ [ ] [ ! ] ! Q p.I.p.h.h.] Z * 6 ) E.j.Q.(.x. . .p.a.h.p.:.[ ",
"p.p.p.p.p.p.p.p.p.[ [ p.h.h.[ ! > : J 4.4.@.[ Q [ [ [ #.#.*.*.=.] ] ] ] ] ] [ ] ] :.i.i.W.W.[ Z * 3 U 4.4.g.v.t..X.XQ.v.h.p.} } ",
"#.&.:.,.i.,.p.=.:.[ Q [ =.,.[ T : : n D.D.1.%.) ] ] ] ) ] %.S.U.4.,.*.@.[ ! T U ! ] [ @.j.E.] p - q ) D.S.I.(.s.g.g.g.j.i.,.;.:.",
"@.@.%.*.4.*.%.%.4.@.] @.%.*.@.) : % n 1.N.N.N.%.{ ] ) ) ) +.1.N.D.4.4.%.@.) ) T T ) T T @.@.T s @ < n O.@.%.4.@.! @.*.4.S.4.%.%.",
"Y Y Y Y Y Y Y I Y Y T Y Y I Y Y 0 % h V M V ^ M ` _ ^ v v n M M n n n n n N I L n n n b a b a a 2 0 n Y Y T @.U U U T T ) Y I M ",
"q q q q q q q 0 : : q q : : q e 0 % 4 4 $ $ 4 - 2 < < < < 2 4 0 : : : : # # # # : : : # O O # # 2 # q e q q t = > > = = : 1 3 e ",
": : : @ @ : : : @ @ : : : : : 2 0 % 4 4 $ 2 e 3 2 3 5 5 4 4 2 < : : : # @ O O O : : : : : : : 2 2 @ @ - . O * . * = - = 2 1 2 2 ",
"i e q q q e a a x z z z x z a e a e z x x ) 1.%.~.F.F.N.) M a q e e a z n N Y Y Y N N ( O.+.O.( +.( ) ) I T ] T s J T ] ) I a 3 ",
"i 1 p ] %.%.%.) ) ) ) ) ) ) ) ) ) ) @.@.] T @.L.,.,.>.4./.4.n > a 2 I %.N.F.) I Y Y U ) +.%.) ) %.) ) ) ] { { [ ] [ &.) A.D.l 5 ",
"p 1 x ] %.] ] U ) / / / / / ) ) T T ! [ ! Q ! #.[ #.#.#.*.@.s = t - I %.>.S.) H I I U ) %.1.%.%.{ { { ] ' ' Q Q [ ] [ / A.A.k 3 ",
"p 1 l ] } ] / H U U U U U U / U ! T ! ! [ ! ! ! ! ~ [ #.*.X.s > 6 1 / >.>.B./ H G G H I / ) ] ] } } V.} [ ' ] [ [ Q ] U A.S.k 3 ",
"7 ; p / ] ] / U / U U U U U / / ] T U ! [ ! Q Q Q ! [ @.@.T s = i 6 ] B.%.} H H / / / / ) { { } / { } } } ' [ [ ] Q { ] T.D.k 5 ",
"7 ; p / ] ) ] / ) / / / / / / ) T J J U ] U K K G U ] ] T J t - i 1 / { / ) x x U / / / / ) ) ] H / { ] / U ' ] &.{ B.Z.).F.k e ",
"l 3 p U ) ) ) / / U U U U U U U U G G I / I H I G U ) ( Y n e 2 a 1 I ^ I ^ v I I I ^ ( _ ) ` %.` { %.%.] ) ) ] %.%.Z.1.F.+.e e ",
"x 3 e x z k l k z z p a a a a a z k k z l z l v z v n z h h w 0 c 2 z z a x z z n N ( ( _ _ ) +.^ ^ ^ Y I I I I J x N m V m % f ",
"x 2 2 e 4 - 2 - < : - @ @ @ - < < $ $ < < < 4 5 4 5 4 $ + % & % c - q 2 @ < @ @   @ - < - @ @ < < $ $ @ - 2 2 : : @ 2 : 0 w + h ",
"< % < < < < < < < < - @ - < - X f f d & 4 < < < < < @ @ $ % % % % @ @ < 4 < - < < @ @ < @ 2 3 o j $ g X < @ @ 2 * * - - 2 2 < @ ",
"N N N N N N N Y I I I x I U H k f d & & w g e e k a e e g k g g c z z x M n x x U I ( ) ) %.%.M 4 $ B c _ Y I I T T U I I I I Y ",
"@.@.%.%.%.%.%.4.@.%.&.@.*.4.#.) g w 4 g M _ ( I U I J J I I M n Y J J T T T T T ] ) %.4.4.I.E.) < $ _ ) './.E.I.(.(.f.*.] ! @.*.",
"@.@.@.*.*.4.4.4.*.=.=.4.j.I.=.! z e 5 x ) 4.*.@.! T U K I I I J J J J K U K K U K J U ! ! #.#.K 1 - T T `./.(.XX(.n.n.0.! ! [ *.",
"#.#.#.#.#.*.$.r.0.0.0.d.n.(.t.! p 3 3 p T 4.*.! ! R K K K K J G K D D K K K K E R F K R K ~ #.K , ; U U j.d.x.m.x.n.n.t.o.! [ *.",
"#.#.#.*.*.*.r.r.0.0.0.r.v.(.d.! s i 3 i U #.*.~ ! R K K K K J G J D F K K F K ! ! K R R K ! ~ K ; = ! [ XXn.x.n.u.x.n.x.t.*.*.$.",
"$.$.$.$.$.4.4.$.*.*.#.*.v.(.p.! G p 6 t K [ *.#.! Q K K K K I J J D J K J A K ! ! K R K K Q ! A ; = ] #.oXXXn.n.t.d.x.j.j.l.4.4.",
"E.E.E.4.4.f.f.f.j.4.*.=.I.{.j.[ x i 1 3 s T [ [ ! U K I U U U I I J J U J J K ! @.! [ [ Q ! ! Z > - T ] {.(.(.XXQ.j.j.f././.D.D.",
") ) 1.N.%.%.%.Y ) ) ) ) ] { %.%.I k 2 3 x T ) T @.J ) ) ( +.V c n z M Y M Y ) I 1.1.%.{ ) / I I 1 e x ) @.@.) U ) ) ] @.) ) ` +.",
"e 2 e a e z x a x x v x v v H v v z e e p x x x U z Y v z c g h m z c z e e e 2 k p k p i e 5 3 $ < 5 e i i 3 1 1 1 1 1 2 < 4 w ",
"c e 0 4 < 4 e 2 < 2 2 2 2 2 3 2 < 4 5 3 2 - - 2 - @ 5 < $ & $ f % 2 2 @ @ < < @ @ @ < < < < < < 5 5 5 3 2 : - - 3 3 2 < 4 4 4 4 ",
"M r 5 5 < < 5 2 2 2 2 2 3 3 3 3 2 e k a 3 3 3 i - : i 2 4 w $ w + 4 4 @ 4 e e e 5 e e a k k l z v v v x x x x x z z z z z h f & ",
"M e e x x I ) U I I U U ) ) ) ) %.%.%.%.@.@.@.@.%.%.1.( +.( < 4 r Y Y z M I x n U U T ) ) ] { %.) ) ) ) ] ] ] ] T ) O.) ` _ c 4 ",
"I i x @.%.4.E.4.4.4.4.E.Y.].{.{.oX}.{.].(.(.j.j.j.I.4.@.).N.4 4 p %.O.J ) ) J U @.@.@.@.&.&.=.,.] @.@.*.*.#.#.#.*.f././.H.D.^ 5 ",
"J 9 u T ! X.#.! 4.s.s.g.v.Q.Q.(.(.(.n.x.t.7.7.5.E #.! T /.4.1 3 > @.! A ! ! A K *.*.#.#.[ [ [ #.#.#.#.#.o.o.o.o.! #.*.*.4.1.v - ",
"P y C X.*.$.d.r.#.#.0.0.0.t.t.x.t.x.x.x.9.5.~ o.~ 0.#.! `.4.> t 9 r.#.F ! E y S d.0.#.o.~ W ! ! o.o.~ ~ ~ ~ o.5.~ #.#.#.4.4.I > ",
"U u y E r.#.o.7.~ o.#.t.t.t.p.8.w.w.8.| | | 7.0.p.! #.! T ) i t , r.#.S E ~ E x.~ W W ~ ~ ~ W E R ! [ ~ W W W ~ o.o.! ! $.4.U > ",
"J u s *.(.n.d.d.S K E ~ [ [ [ [ c.b.c.b.c.v.g.g.,.T ] T ) ) q = , 7.0.R 0.d.0.(.(.t.o.E E E ~ #.! [ [ [ ~ ~ ~ o.~ #.*.$././.Y > ",
"x i i T 4.*.@.*.T [ #.=.i.i.L.W.h.p.p.g.I.L.>.] U.%.%.%.N.N.z 3 6 [ @.T j.j.*.j.4.@.U A A J K U / U U U K U T ! K U T U T T z : ",
"` x a x U I U @.T ] %.%.} } V.L.L.A.,.S.D.S.%.) ` I _ ^ _ ` z e i T T J ] @.T U x x x x x x x x k p i i i i i p x J x i a z z e ",
"M g 2 2 2 < 1 e 3 3 3 3 3 5 k k i 5 3 3 3 2 < @ 4 < 5 < 4 5 < 5 - 3 2 - 1 e 2 - . @ - < 1 2 - @ < < < < - - - - 1 1 < @ @ % 4 w ",
"g 4 4 4 2 - @ - < - - - < < < < 4 4 4 4 4 4 2 4 $ $ 5 $ $ 4 4 k 2 2 2 < 2 e e 2 3 2 2 < 2 < < @ @ < 5 e 5 3 3 3 - - 2 4 4 4 w w ",
"M.+.+.1.+.) ) O.) U U U I H k 5 $ 4 e r r e r k v k ^ v v ^ v _ %.) ) O.) 1.N.+.%.) ) ( ^ U Y I @ e I _ U I I U ) Y ( ) ` +.+.+.",
"OX'.).U.D.D.`.}.]./.E.U.S.{ x 1 e z ( ) ) ( ) +.%.) %.) ) %.) { %.) ] %.) ) %.) ) ) ) ) ) U I x - z %.D.4.%.*.4.4.@.T ) ) 1.N.H.",
"L.,.&.#.#.*.s.l.(.(./.].}./.U 1 : a Y O.O.) T T T T T ! ! ! Q ! [ ] ! T T U U U U J J T ! U G s * s @.4.=.@.*.d.p.#.! ! ] %.4.D.",
"p.p.#.[ [ #.7.y.d.d.v.(.oX(.K ; > a Y @.@.) T T ! ! ! ! ! ! ! ! K K K K K K K K [ ! U ! [ ! K s * s *.(.j.0.#.7.~ ~ o.#.*.4.j.4.",
" .6.[ [ 5.o.5.5.x.x.x.(.XXQ.K > = t J @.@.T U P T T Q R E R R R ! ! ! P Q E ! ! ! E K F Q ! K t = s *.(.n.7.5.5.o.o.5.t.d.g.p.#.",
"[ [ [ ~ [ ~ o.o.x.z.r.r.g.0.K , = t x U T T U U K K K K K K K K K K K J J K K K A K A s K @.K t ; s ! 4.s.r.y.t.7.5.7.7.6.#.[ ! ",
"[ [ [ [ [ #.o.~ r.*.*.*.*.@.G > : q x Y T ) T T U U U U U P P P T T T U I I J J J I J x U @.T s - i ) 4./.k.d.d.d.0.~ ! [ ] ] ] ",
"} ;.:.;.:.*.*.*.@.@.@.4.Z.%.x < 5 e z n M Y Y Y U Y Y Y L L L Y ) ) Y Y I I I M n I n x M Y I a < z ) G.`./.4.@.4.*.[ ] ] %.1.>.",
"/ / / / U U U T I I Y Y ( _ z 4 g g g g g z z z z z z z z z z z e e 5 4 4 2 2 2 r r r g k k r e w h m ( ( Y I x I I I U ) _ _ ^ ",
"5 5 5 3 3 3 3 3 p e 2 - 4 r g 4 g f 4 4 4 4 < < < < % % % % % % 0 4 4 4 4 4 4 4 < < < e g 4 4 g f w 0 2 2 2 3 q 1 1 3 p k i 4 < "
};
