/* XPM */
static char *b44308a2980b47a5a52f9712a71373b5[] = {
/* columns rows colors chars-per-pixel */
"80 64 201 2 ",
"   c #150C04",
".  c #1C0D06",
"X  c #1B0E09",
"o  c #071200",
"O  c #0D1400",
"+  c #0F1B00",
"@  c #151502",
"#  c #1A1503",
"$  c #151C02",
"%  c #1B1C05",
"&  c #1E120B",
"*  c #171E0B",
"=  c #1C1C0B",
"-  c #1F1411",
";  c #1F1D11",
":  c #210C07",
">  c #210E08",
",  c #241606",
"<  c #211B07",
"1  c #23140C",
"2  c #2A140F",
"3  c #241B0C",
"4  c #2A1C0D",
"5  c #301F0D",
"6  c #231613",
"7  c #2A1612",
"8  c #251B13",
"9  c #2B1C14",
"0  c #271C19",
"q  c #2B1D1B",
"w  c #301D17",
"e  c #301F19",
"r  c #162203",
"t  c #1C2205",
"y  c #1D2A03",
"u  c #1D230A",
"i  c #1E290C",
"p  c #1F2012",
"a  c #1F2C10",
"s  c #202305",
"d  c #222906",
"f  c #23240C",
"g  c #2A250E",
"h  c #232A0C",
"j  c #2A2B0E",
"k  c #25320C",
"l  c #29330F",
"z  c #252412",
"x  c #2B2414",
"c  c #252A12",
"v  c #2B2B14",
"b  c #272419",
"n  c #2D231B",
"m  c #2D2C1A",
"M  c #322415",
"N  c #392417",
"B  c #322B15",
"V  c #33251D",
"C  c #39251E",
"Z  c #332C1C",
"A  c #3A2B1E",
"S  c #273114",
"D  c #2C3214",
"F  c #2D3B13",
"G  c #2E321A",
"H  c #2E381A",
"J  c #323316",
"K  c #3A3515",
"L  c #303A17",
"P  c #33331C",
"I  c #39331D",
"U  c #343A1B",
"Y  c #3B3B1D",
"T  c #2E2321",
"R  c #2F2D21",
"E  c #342522",
"W  c #3A2722",
"Q  c #352B22",
"!  c #3B2C24",
"~  c #3C2629",
"^  c #362B29",
"/  c #3C2D2A",
"(  c #2F3022",
")  c #353322",
"_  c #3C3324",
"`  c #363923",
"'  c #3C3A24",
"]  c #3D332A",
"[  c #3E3A2A",
"{  c #3F3231",
"}  c #3E3C30",
"|  c #422C1F",
" . c #412D25",
".. c #422E2A",
"X. c #482F2B",
"o. c #433226",
"O. c #483327",
"+. c #413A25",
"@. c #44332C",
"#. c #4A352C",
"$. c #443A2C",
"%. c #4C392D",
"&. c #513B2F",
"*. c #462E31",
"=. c #443431",
"-. c #4B3531",
";. c #463A32",
":. c #4C3B33",
">. c #4D3D3A",
",. c #503732",
"<. c #523C33",
"1. c #523D39",
"2. c #583F3B",
"3. c #34441B",
"4. c #364121",
"5. c #3B4326",
"6. c #3E412B",
"7. c #414226",
"8. c #45422C",
"9. c #4B432E",
"0. c #454C2B",
"q. c #4A4F2F",
"w. c #444234",
"e. c #4D4234",
"r. c #444F31",
"t. c #4F4931",
"y. c #4D423A",
"u. c #554236",
"i. c #544437",
"p. c #564436",
"a. c #534134",
"s. c #584234",
"d. c #584236",
"f. c #504833",
"g. c #504239",
"h. c #514239",
"j. c #55423A",
"k. c #56453B",
"l. c #56413C",
"z. c #53453C",
"x. c #53463D",
"c. c #55473E",
"v. c #54433B",
"b. c #594739",
"n. c #59473D",
"m. c #59453F",
"M. c #5A453B",
"N. c #56483F",
"B. c #54493C",
"V. c #58483B",
"C. c #5B4A3A",
"Z. c #5C4B3B",
"A. c #5A483E",
"S. c #5D4A3D",
"D. c #5C4C3F",
"F. c #5C4B3E",
"G. c #5A523F",
"H. c #614E3F",
"J. c #564740",
"K. c #564441",
"L. c #5B4741",
"P. c #5A4743",
"I. c #574941",
"U. c #554B41",
"Y. c #5A4A42",
"T. c #5C4943",
"R. c #5D4B41",
"E. c #5B4D42",
"W. c #594C44",
"Q. c #5F4C46",
"!. c #5E4D46",
"~. c #5C4B44",
"^. c #5E4F48",
"/. c #5E4C48",
"(. c #5D5048",
"). c #614E40",
"_. c #624F49",
"`. c #634F48",
"'. c #625147",
"]. c #675646",
"[. c #635547",
"{. c #625A47",
"}. c #67564C",
"|. c #64544B",
" X c #68574E",
".X c #645C4B",
"XX c #6C5B49",
"oX c #6B5B4B",
"OX c #665750",
"+X c #6A5751",
"@X c #685A51",
"#X c #6B5D54",
"$X c #6D5C52",
"%X c #725D55",
"&X c #725F59",
"*X c #736156",
"=X c #74665D",
"-X c #75635A",
";X c #78655E",
":X c #76685F",
">X c #756858",
/* pixels */
"& V V 1 3 9 8 9 9 9 n n n n 9 4 , 5 N M 4 , 4 M 1 3 n . & V 8 6 9 7 1 1 9 w 9 7 1 1 7 7 9 9 7 1 1 1 8 8 V . 9 1 3 8 4 3 1 , 3 9 9 9 8 6 3 6 8 8 9 9 1 1 1 8 6 1 ",
":.@X:X=X=X#XE.z.h.z.c.N.I.N.c.k.].XXoX].Z.a.i.C.}.E.z.V V z.W.|.Q.T.M.P.Q.`.Q.T.T.`.+X&X&X+XT.1.:.K./.h.#.1 @.#.:.:.:.%.$.$.%.:.h.h.e.:.:.e.y.h.:.:.:.#.:.:.:.@.",
"C <.k.:.<.:.o.o.:.:.:.<.a.a.j.i.b.Z.H.Z.i.a.u.C.'.E.T.] / z.z.I.M.l.1.j.M.P.M.l.#.#.@.@.#.@.../ :.:.:.@.#.9 #.@.#.#.#.O.O.O.$.%.%.%.#.#.#.%.%.%.#.%.#.O.#.:.#.! ",
":.D.A.%.:.a.j.D.#.#.#.#.%.%.:.<.o.O.%.%.%.%.<.u.:.a.Q.;.@.h.@./ :.-.#.-.:.:.-.#.1.:.#...#.-.,.1.@./ ! ! -.V :.#.@.@.O.O.o.O.O.O.o.o.o.o.o.o.@.o.@.O.O.O.#.%.@.A ",
"A u.S.u.u.a.#.#.<.a.<.<.<.a.u.u.s.s.s.<.&.&.<.<.M.M.T.o.! :.#.:.1.<.<.1.1.1.,.,. .....#.-.-...! ! #.1.:.#.1 @.<.O.O.O.O.#.%.#.#.%.%.%.%.%.#.%.#.@.o.O.O.%.%.O.A ",
"o.C.).b.b.a.O.O.%.%.%.%.&.&.&.&.<.&.%.#.#.#.O.O.j.j.M.! V #.#.#.-.-.,.,.,.-.-.#.-.-.#.#.#.#..... .! @.#.#.1 ! .. . . .o.@.@.o.o.O.O.O.O.O.O.o.o.A  . . .o.O. .N ",
"O.M.b.%.&.&.&.<.&.&.<.u.s.s.s.u.&.&.#.#.%.<.<.%.<.u.R.O. .:.#.-.-.,.,.<.,.,.-.-.2.,.X. . .X.#.-.-. . .#.2.C #...#.#.O.%.&.<.%.#.%.&.&.&.#.O.O.o.o.o.o.o.O.%.O.| ",
"N &.s.%.<.s.<.u.O.%.&.s.s.s.s.s.d.<.%.#.%.&.%.O.:.:.<.N 9 o.@.:.<.,.1.1.1.,.,.-.X.X.#.,.,.,.#.....#.-.-.#.:  .%.#.@.O.O.%.&.%.O.#.#.#.#.O.O. . . . . .| o.O.o.A ",
"C <.S.u.u.<.<.<.<.<.<.s.M.M.s.<.,.,.<.<.<.<.%.:.O.<.O.M M o.%.@.:.-.-.-.-.:.-.-.#.#.#.=.#.#.#.#.#.#.#.....2  . . .#.%.O.O.%.&.%.O.O.#.#.#.O.O.O. .o.o.O.#.%.O.A ",
"C u.S.<.<.<.:.<.<.<.<.<.<.u.<.<.%.%.:.:.<.:.<.:.%.a.%.C M o.%.O.<.1.,.,.,.<.,.,.-.-.-.-.-.-.-.-.,.,.,.-.-.2  .@. .#.#.#.O.O.%.#.#.O.#.O.#.#.#.o. . . . . .O. .N ",
"@.T.`.M.M.M.l.M.T.M.M.M.M.M.M.l.#.-.-.:.:.:.:.:.#.:.#.M M _ $.o.:.:.:.:.:.:.:.:.-.-.-.-.-.-.-.-.:.#.-.-.#.: W @.! @.O.o.o.#.O.#.@.@.@.@.@.o... .@.O.#.@.#.#.@.C ",
"! l.T.j.l.l.1.l.j.j.l.j.l.j.<.:.#.#.-.:.:.:.:.:.%.e.$.B M _ $.$.:.:.:.:.:.:.:.:.:.:.:.-.#.#.#.@.@. ...@.@.. C #. .@.O.o.o.O.O.@. ......... ... .! !  .! ..@.! V ",
"! l.T.c.T.T.l.c.1.l.P.T.T.c.1.:.:.:.:.:.:.:.:.e.i.y.$.A V ' 8.e.:.>.y.>.:.:.:.y.:.:.:.:.;.#.@.@.@.@.@.#.#.1 ! :. .@.O.o.o.o.O.@...@...........@.!  ...@.=.:.@.! ",
"W 1.P.v.P.P.v.v.>.1.K.K.K.>.>.;.;.;.;.;.:.:.:.;.$.$.' Z x Z ' ' @.;.:.;.@.@.#.:.;.;.;.#.@.@.@.@.#.#.#.@.@.1 ! / A  .o.! ! ! o.! ..../ / / ....../ ....@.=.:.=.! ",
"6 ^ / E E ^ E E T E E E E n q V ! ! ! Q Q Q Q Q x m m z f f f z n V E Q n n V E E E E Q Q ! _ ! ^ / / V E 1 Z 9 M Z A V M V V V E E E E E E E ^ 0 0 q q E E q 6 ",
"e / ! e V E E W V E E n q q n E n x x 9 8 8 8 8 3 f z z f 3 % # 3 6 9 8 3 1 3 9 3 6 8 9 n n V Z V ^ E 8 V 3 ! 9 9 M M x 4 x x 9 9 9 9 9 9 0 q q q V V V E W V 9 ",
"%X%X%X*X-X-X;X;X|.|.Q.c.8 @./.OX(.I.y.x.W.x.@.V I.x.e.;.$.] ] ] ' [ $.[ ] @.$.$.4 Z {.G..X{.{..X-X=X$X|. X*X*X|.$XoX].].].oX*X>X$XW.9 ;.z.W.Q.$X$X@X X$X%X-X-X*X",
"M.M.M.M.S.H.S.S.a.a.1.:.1 V :.:.@.] @.@.#.@.] Q @.@.@.] ! Q Z V _ ' +.$.$.$.:.e.x Z G.t.C.t.9.9.i.M.k.:.a.R.A.:.a.:.%.%.%.9.a.i.k.e.n e.N.c.a.A.a.:.<.<.s.s.s.<.",
"%.%.%.&.%.%.:.:.#.:.:.h.1 V / @.! ] @.] / _ @.;./ ] @.#.@./ E V _ ' $.$.:.e.i.B.Z A D.$.f.$.+.' ! @.@.o.O.:.%.o.:.%.%.#.#.#.#.%.@.$.9 :.h.:.@.:.:.<.u.u.<.<.<.<.",
"&.&.<.&.%.%.%.%.-.:.h.T.9 ! @.#.;.:.:.;.@.] #.:.@.#.:.:.:.$.@.] ] @.$.:.:.e.x.N.A Z B.$.f.%.+._ _ o.o. .@.%.O. .@.@.@.@.o.o.o./ @.;.9 #.#.O.o.:.#.:.<.<.<.%.%.&.",
"<.<.<.:.:.%.%.#.#.#.:.c.9 ! =.:.:.:.:.:.#.@.@.@...@.#.-.-.#.@.@.#.#.:.:.:.e.h.N.V M e.! %.$.o._ @.@. .! ! @.@. .! / / / @./ / / @.:.8  . ... .:. .@.-.<.-.%.-.,.",
"<.<.<.:.:.:.%.%.#. .@.h.9 E =.:.:.-.-.-.-.#.@./ @.@.@.@.@.@.@.@.=.-.:.:.:.:.:.a.V V e.! #.o.o.o.#.O. .! ! / /  ...@.@.@.@.=.=.#./ #.8  . ...! .. ...#.-.-.:.,.<.",
"<.<.<.<.:.:.-.-.#...@.y.q Q @.:.-.-.-.-.=.@.@.@.=.=.=.=.@.@.@...=.=.-.=.#.#.%.:.A ! M.o.#.@.@.#.#.@.@.@./ ! ! / ^ ^ ^ / / / / / / #.8 / / @.! / C C C W ....X.X.",
"%.%.:.%.%.#.#.#.#./ ] y.9 E / =.@.=.-.@.......@.=.=.-.-.=.@.....*.=.=.@.@.#.$.%.V A k.o.#...@.:.@.] @.@.] ! ! ! @.@.@.@.=.=.=.=.:.:.4 ! ! #.@.@...! ! ..#.-.-.-.",
"%.%.:.:.:.:.=.#.=.:.=.=.E q ;.=.-.-.-.=.@.@.........@.........=.*.=.=.-.-.-.%.%.x _ :.:.#.@.#.@.#.@.@.@.] ] ] ] Q ! / ] =.=.=.=.] @.@.@.@.Z V #./ C W ......@.1.",
"#.#.-.:.:.#.#.@.;.>.;.;.E n ;.=.=.@.@.@.............@.........=.*.*.*.@.@.@.@.o.4 A %.%.O.#.,.1.@.] ] ] ! ! ! ! ] ] @.@.=.=.@.@.o._ M Z $.o.Z ! ! ! / =.-.-.>.1.",
"-.-.:.:.:.:.#.#.;.>.=.;.E n ;.=.....@.=......./ =.=.=.=.......=.*.*.*.@.@.@.+.+.x ' 9.%.O.@.#.-.:.;.;.;.;.=.$.$.! _ _ ] ] ] ] ] ' I m B +.' Z A V ! / / @.:.:.-.",
"#.#.#.#.#.#.#.#.;.;.=.=.E q =./ ..@.=.=.=...../ =.=.=.=...............@.$.$.+.' v Y 9.9.#.O.#.@.=.{ ] ] ] ] ] _ Q ! _ _ ] ' ' ' Y ' I J _ I Z ' V Q ! Z ! =.=./ ",
"@.@.@.@.@.@.@.@.=.=.] ] E q { / / *.=.=.=.=.*./ =.=.../ / / / / ~ / ..@.$.' I J f J 8.9.e.<.1.>.;.=.=.=.=.=.@.@.o.' ' ' ' +.+.+.I Y K v I I Z _ I _ _ V Q ;.:.@.",
"@.@.@.@.] @.@.@./ / Q / T q { ^ E / / / / / ^ ^ =.=./ { =.{ / / ......@.$.` D d j U 7.8.%.%.:.-.>.>.>.y.y.y.e.e.o.' ' I I I K I U J d s J Y J m I Z m x Z [ ;.[ ",
"V V V V V E E E q n 0 T 6 - ^ T 0 q T T E n q 0 ^ E E Q / ^ E E / W V Z A J j d U Y Y J B V W W ^ ^ ^ ^ Q Q Q A Z B B B B K K K J U l d j j h v D f = f x b b v ",
"> > . . . X & 1 1 & X 6 X   q - & - 6 8 8 6 - & 6 6 - 6 8 8 6 6 7 6 1 , 4 f s t D D j < # 3 M V n n n n n n x x g g j B K Y +.7.j 0.q.P t @ % ` P f = z z = # & ",
"9 @.@.V ! / ! ! / ! / ! ! ! ! ! ! _ _ ] ] @.$.$.#.] ! & 9 z.K.v.>.1.v.c.N.x.y.8.z Z ' $.+.' ' ' y._ $.$.e.g v Y I v f u f c c c G 6.8.G z z z 8 b Q ! ] [ =./ E ",
"9 @.] V ! ! ! ! ! ! ! ! ! ! E E Q Q Q Q Q Q Q Q ] ] ] 6 V c.h.:.-.-.:.>.1.:.:.$.E _ $.$.+._ _ ' +.v I J +.g j D j f t % $ * * * z m R z ; z b 8 n Q ^ / { =./ E ",
"9 / / V E ! V ! E E E E V V V V V V V V V V V V V V ! 9 V y.;./ / / ! / @.@./ ! ! _ ] ' _ A A I Z g B g ' j B j v j f f = * = p z m m z b Q Q n n E Q Q / ] / E ",
"9 ! ^ V E V V E E V E V E V V V V V V V V V V V n V ^ 9 V :.@.! / ~ W W ! / ! ^ ! ] ] ! Z Z A A V m _ v ' K I v v B P m b b b m Q _ _ E Q Q Q Q V Q E E E ^ Q T ",
"9 E E V E E E ^ E E E E E E E E V V V V V V V V ! E / n V :.@.@...../ / ..@.@.@.@.@.] ] ] _ ] ] V Z $.m I v I v v m V V n n n Q V ! ! E V V E E E E E n T E T 0 ",
"8 E E E E E V / Q E E E E E E E E V V V V V V V ^ E / 9 V #.@.@.../ / / / ..] / @.@.] / ] ] @.[ m Z ' c V 3 B x B B V V n n V E e V ! C V n V E E E Q n T E n 0 ",
"0 E E E ^ E V / E E E E E E E E E E E V V V V V E V E 9 n ] ! / ! / ^ / / / / ! ] / / / / / ] ] [ m ) z m 3 m m ' _ A V V W W W W C C W W W W ^ E E ^ E E ^ T 0 ",
"0 E E E / E V / E E E E E E E E V E V E ^ ^ ! / ! V ! n n ] ! ] @.@.@.@.=.=.@.@.@.@.@.@.@.@.] ] w.( Z c ` z Z Z %.o.! ! W ! ! W ..! C W ! ! W V V E Q ^ ^ ^ ^ T ",
"0 E E e E E E / E E E E E E E E V V V E V E E E E ] Q n _ ' _ ] @.@.=.;.:.;.@.@.;.;.=.@.@.@.@.[ } ( z c x m A _ A A ! ! ! ! .. ... . .! W ! ! ! ^ ! Q ^ ^ ^ ^ T ",
"6 E E q E E E E E E E E E E T V n V V V V E E Q Z _ V z Z ` ` ' $.$.$.$.[ ] $.;.] _ / ] / ] ] ] ) m z z c x Z _ I I !  ......... . .! ! ! ! ! ^ Q ! ^ ^ ^ / ^ T ",
"8 E E E / / E / E E E E E E V V n n V V V Z Z A _ ' P c v I P ' [ [ $.[ ] ] [ ;.] ] ] ] ] ] ] ] ) m c c c v A +.' o.o.@.@.@.@.@./  . ...../ / ! Q / / ^ / { ^ E ",
"6 V E V / ^ E ^ E V E V E V E V V V V V Z V Z Z I ' P h v D S U G ` ' ' [ [ ' ` [ [ _ _ _ ] ] _ ) m v c c f B ' I ' _ _ / /  . .! / / / ! ! E E E ^ ^ Q / / ^ T ",
"6 V E V ^ ! E ! V V E V E V E V E Z Z V V m m v h P D d k k h D D G P G ` ' ` G P P Z Z Q Q ) ) P G v c f s j J I I I I ! ! ! / Q Q Q Q Q V n n n Q Q ^ ^ / Q T ",
"n / ^ V ! / ! / ! / ! ! / / / / E Z Z m m v f f d H D k F F F 3.H H D c c P ` G v v m m Z ) ) ) ` P v v h d j J +.' ' ' _ ] ] [ [ ] ) ) Q Q Q E Q Q ^ Q / / / Q ",
"n ! Z n V V V ! Z Z ! ! ! ! ! ! V m x z f f s y d U F k F F F 3.k U 4.D h S D c m m m m m m P P ` D c h h d j D Y I I P Z A Q ) Q R R m m m R Q Q Q E T E / / E ",
", 9 3 . 1 1 , 4 3 3 3 4 4 4 8 4 z f f s s s s s v U H d k k k F t ` r.5.D h i t D v v c c z z z v u % % % t t f f s % % % % = = = * * = = ; 8 8 8 6 6 & 6 0 q 8 ",
"n 9 9 x n 9 3 , 4 3 < % % % % % d l U I Z z z 9 8 4 s f h d y y u f ` 6.P c h f f v P Z m x V A z x b z = @ @ % f u u u f u t $ = = f c v ) ) = b b b x 8 8 n E ",
".X{.[.[.'.D.i.e.B I ' ' ` G v h k F U ` ' ' @.@.V V x m v S l S G c v G v v G D J I ' 8.e.y.i.h.I.U.y.;.) m m m ) ` [ 8.8.5.U D G m G m v ) w.[ w.w.;.$.] ! ] ] ",
"@.] ] _ ! A M 4 3 g Z I Z c u t t y f v m Z ! ! ! ! A Z P J L U ' x f c c D P D t s f v A A Z Z ;.;.[ Q n z b m m G ` ' ' ` m c c z m f @ = Z ) Z Z Z Z Z Z Q _ ",
"@.O.#.#.#.O.o. .9 g z z v v c c f d f v V Q ^ ! ../ ! Z m D H U ' x c v m D D d v D I ` +.o.' ] E Q Q n n b m Z ) ) P P P G G G Z P ' I = = x x 8 8 x n Z ! @.$.",
"/  .@.@.@.o... .o.Z x x Z I P v f h v Z _ ] / / ..] / A m v v D ` x m P m v D j $ t v v V V A ! ] ] / Q V n n b [ [ _ ) P ) ) ` _ _ $.$.m g x x A A Q ! ] @.@.@.",
"@.#.#.#.@. . . ./ Z V V A Z x u % s z m A ! / / ..@.] Q V v v D P x v G c v P P d D I I I A _ @.Q Q Q Q V n x 8 n Q Q Q Q m n b _ Z I I g 4 V A A Z Z Z ! / ! ! ",
"@.@.=.@...! W ! ! ! _ _ ) Q m v m P I ) Q / @.;.^ / ] _ V m m P _ m m G c c D S S D P J m m V Z _ / ! ! ! / ] ] Q Q ] _ Q Q Q Z ' I ' +.B x A o.! A A ! o.O.@.o.",
"@.@.@.@.! ~ ! ! 9 V ! Q m v Q ' P ) _ Z n n Q ] E ! _ _ Z m m P [ Z I ` G c h t h h f f v Z A Q ] ] ^ E E Q / ] / / Q V n n E ! Z B +.+.x < x A ] ! A ! ! / ! C ",
"/ / ........! ! V ! A x m _ ) 8 = = 3 z Z _ ] E E _ ] _ Q V m m A ` ' ` P v c j h c c c v P Z x Q E n n V E Q / Q / ] / / / ! Z 3 J +.' I x x ' A A _ o.o.o.! V ",
"! / / ../ / ! C V V V V m v z # = 3 z x Z _ ] Q _ _ _ ) Z m x x V Z Z P P U ` 5.S H P D m G P Z m Z Q Z Z Q Q / V Q Q / / / / Q ' ' B 3 3 3 M $.o.o.] _ o.o.! ! ",
"! ! ] @.] ! ! V ! n x Z P z u u = x m m Z ) ) Q _ ) ) ) P Z m m V m m v G G G H h S D c c m ) ` z n Z Z Z Z Q Q Q Q Q ! / Q E Z ' +.J B I I A ' +.+._ _ o.o.o.o.",
"E Q ! ] / ! V V _ V z z v c c c c P ) P P P Z m m m m m P ) P Z Z Z Z P P D h r h h c i i c c v z z v m m m m Z Q Q E Q Q n n x z J J I 8.$.A Z ' ' _ _ ] o.] _ ",
"n Z Q Q Q Z V x x m v u f S c r c P ` P G G G m v v v m G P G Z A A I ` ' U D j 4.H c h c c u = v c c v m P Z m m n m Q ! Q V Z g J v f v K Z I ' ' ' ' ' _ Z M ",
"Z Z Q ) ) ) A A 3 m G c c G a o c v m v c D D S D G ` ` P G G P _ ) Z m m D G H 4.D c S G G G c m v v v G P Z m b x Z ] ;.@.;.e.` 0.7.P I ` ' $.8.8.8.$.$.' Z x ",
"x x x x m V Z Z f v c c c S i $ c c f u u h h t h D U U D c c v V m z 3 % % t u h r r c G G G G u c G G v c c v c f z ) [ Q Q [ J 7.7.U ' ' I P _ I I I I Z x z ",
"# @ @ # # % 3 s v % @ $ t r i c c c u $ $ r r + o $ i h u $ $ u # = 3 % $ $ $ r r + $ r u $ $ = O u G G f $ = f = @ # z 8 @   # @ t % O % s % @ # # # # % < < < "
};
