/* XPM */
static char *abc1a8aba454483083aa78e274bbba06[] = {
/* columns rows colors chars-per-pixel */
"64 64 144 2 ",
"   c #0E0701",
".  c #0F0B04",
"X  c #0F0E09",
"o  c #130D05",
"O  c #140E09",
"+  c #180F08",
"@  c #141007",
"#  c #191306",
"$  c #1F1806",
"%  c #15120C",
"&  c #1B150D",
"*  c #1E180D",
"=  c #161511",
"-  c #1C1611",
";  c #1D1A13",
":  c #1E1D18",
">  c #20170E",
",  c #211A0E",
"<  c #221711",
"1  c #231C13",
"2  c #291F14",
"3  c #241E19",
"4  c #291E1A",
"5  c #27200D",
"6  c #28210F",
"7  c #262016",
"8  c #292216",
"9  c #2F2815",
"0  c #25221B",
"q  c #2B241C",
"w  c #2E281E",
"e  c #302917",
"r  c #30271D",
"t  c #312A1E",
"y  c #262521",
"u  c #2C2521",
"i  c #2E2A23",
"p  c #302722",
"a  c #342D24",
"s  c #382F26",
"d  c #352D2A",
"f  c #382F2A",
"g  c #363025",
"h  c #3A3323",
"j  c #393221",
"k  c #3C3523",
"l  c #3A3225",
"z  c #383127",
"x  c #393327",
"c  c #3D3624",
"v  c #3C3427",
"b  c #3D3626",
"n  c #393226",
"m  c #37302A",
"M  c #363129",
"N  c #383129",
"B  c #393228",
"V  c #3A3329",
"C  c #39302B",
"Z  c #3A312A",
"A  c #39322A",
"S  c #3B322B",
"D  c #3A332B",
"F  c #3C332A",
"G  c #3B342A",
"H  c #3C3429",
"J  c #3E3629",
"K  c #3C352B",
"L  c #38302D",
"P  c #3A312C",
"I  c #39322C",
"U  c #3B322D",
"Y  c #39312E",
"T  c #3A322F",
"R  c #3B342E",
"E  c #3D342D",
"W  c #3C352D",
"Q  c #3D362C",
"!  c #3E372D",
"~  c #3D342F",
"^  c #3C352F",
"/  c #3D362E",
"(  c #3B342B",
")  c #3F3828",
"_  c #3F382E",
"`  c #3E382E",
"'  c #392F30",
"]  c #3B3130",
"[  c #3B3330",
"{  c #3D3332",
"}  c #3C3431",
"|  c #3F3631",
" . c #3E3731",
".. c #3D3532",
"X. c #3E3633",
"o. c #3F3734",
"O. c #3D3531",
"+. c #3F3830",
"@. c #3E3931",
"#. c #413A27",
"$. c #40372E",
"%. c #423B29",
"&. c #40382D",
"*. c #40392F",
"=. c #433C2C",
"-. c #423A2E",
";. c #403730",
":. c #403931",
">. c #413A30",
",. c #423B31",
"<. c #413A32",
"1. c #433C32",
"2. c #443C31",
"3. c #473F34",
"4. c #433B33",
"5. c #483F34",
"6. c #433B38",
"7. c #453D39",
"8. c #483F3A",
"9. c #474036",
"0. c #474135",
"q. c #484035",
"w. c #4A4235",
"e. c #4B4336",
"r. c #4A4236",
"t. c #464239",
"y. c #494238",
"u. c #4E463B",
"i. c #4F473A",
"p. c #4F473C",
"a. c #4B433B",
"s. c #4E483F",
"d. c #524A3F",
"f. c #4D4640",
"g. c #4D4940",
"h. c #504644",
"j. c #534B40",
"k. c #554D42",
"l. c #544C42",
"z. c #584E44",
"x. c #5B5346",
"c. c #575048",
"v. c #5B534B",
"b. c #61584F",
/* pixels */
"..a u d ] f d d d d d d d d d d a d d d d a a a i d i 3 3 d f a d d p d d f Y a a a t 9 e e 9 6 * 1 0 q q q q q q t a a p t p a ",
"i 4 3 u d Y ..6.o.....Y d d d a d d d d d d d d Y ..d 0 0 d Y d } ' d p p a p q < , * # > 5 5 , w t t q 0 0 0 q p p a t 8 7 1 7 ",
"; & & - 1 3 u d Y Y ] ] Y d d d d d d d d d a a a d d 4 3 i d d ] d p u 4 4 3 1 1 1 1 , 9 j #.%.z z a q 8 8 q t a a a w 0 7 1 1 ",
"0 3 1 - & O O & 4 u a d ] ......d d Y Y Y f d d d f d 0 3 4 a d u 4 4 4 4 4 1 < u.d.i.=.j j c c t t q 8 0 q p z a a a a p p a a ",
"....R a 0 ; % o & - 3 u a N Y Y a d d d d a a a R ..Y u 1 1 3 0 3 3 0 u p p 0 1 K 3.e.) r 9 e j 1 7 0 q q p a N a a a a N K _ -.",
"R ..^ d i 0 < O o O % & - ; < < - - - - - & & & < 1 1 ; & & 1 3 u p d Y E a q 1 q a K z t t h v 1 1 8 t p a z N G z a z N ^ ^ ^ ",
"a a p q q q 1 % o o o o o o o o o o o o o o o o o o % ; 1 0 q p N Y E ;.^ a q 1 k.d.r.K a t 9 1 8 8 t a a z K _ -.K z z z N N N ",
"^ ^ a p p a q - & & & & & < 1 1 0 0 0 0 0 0 0 0 i q p N +.<.<.<.^ ^ ^ ^ N a 0 < p.2.a q a v t 8 q w a z z ^ ,.0.,.^ N z N G N z ",
"G ^ N p p p q < & & & * < 1 0 0 1 1 1 7 0 q p p q q p a N N a p f f F r s F 1 2 r.-.a t s v t 1 t a z z z K ,.a.<.^ z a a a a a ",
"N G N a a a q < & & * < 1 7 0 0 p p p p p p p p i p a N N N M a a a E p N K 1 1 -.K a a z K z t a a a a a N ^ -.N z a a a z N N ",
"a z G N N a q < < < 1 7 0 q p a a a a a a a a a q p z z a a a a r a N p N ^ < < ^ ^ F a a a a r z a a a a a a a z a a a z N G G ",
"a z ^ ^ G a 0 < 1 1 7 0 q p a z t p a a a a a a q a z z p w t a r a N t N K < 1 s K K s a a a p N a a a N N z a N z a a z N N z ",
"a z K _ x t 7 1 7 7 8 8 8 8 q w w t t a a a t t t z K K z a g z a a z q a K 1 2 q s K z a N ^ $.z a a N _ <.^ G N z a a z N z z ",
"g z z K z q 7 7 a a t w q q q q a g z z a a t w a z x z g a a z z z F q a F 1 8 a K -.F s z F F w p a z G K N z z a a a N N N z ",
"a a a z a 8 8 w t t t t t a a a a z z x z z a t t a a a a a a a z F $.p z K 1 1 r s N a a a a a a z K ^ K N z z N z z z z z a a ",
"p w r a t 8 q g > , 1 7 q t a z w t g z x x z g z g a g z G z z z K -.a K K < < o < 0 q p M ..^ 4.a.g.s.t.4.+.+.+._ R M M a i q ",
"a s F F f a a a 4 < & * < 1 1 < 8 8 q w t a a a , q K 0.2.z t t 2 e t t 8 , & & & 3 o O = X = - % % % % ; ; ; ; i i i M O.@.M i ",
"& < 1 4 4 0 q q 4 4 4 0 q p a a 1 1 1 , , * * & * * , 1 1 1 1 1 , 2 e t r q q t 1 q O O = X = % % % % % % = = = X X X % % % X . ",
"+ & & < 1 1 q i q p a f N N R ^ w w q 8 8 7 1 1 , * # # * , 1 < e t s a p r t p i a % % ; % = % = = % % % % % = = = = = % % % = ",
"2 0 0 0 0 q p z f R ;.^ N a p a z z z z G G x z 7 w a z z z a t K K K z a r q p M M % % : - ; = : : : : ; ; ; ; ; : : ; = % ; 0 ",
"q q q q q i a I ^ +.<._ a w 8 8 q w p a z N N N 7 G u.s.a.0.2._ s s z a a a N N M G - - 0 : 0 3 0 0 0 0 0 : : 0 ; : : ; % % : 0 ",
"q q w i i i I R ^ +.+.R M i w w q q w p p a a a 1 N a.3._ _ <.-.a a a a a z N N G R 1 1 u 0 u 0 0 i i y 0 0 0 0 0 0 0 0 : 0 i M ",
"q i i i a M R @.R I R I I M g i z z z a a a a a 1 a +.M p a N z z z z z z a a p N <.8 8 i 7 u u q i i i q 0 w i q q 7 1 ; 1 7 q ",
"w i i i i a I R R I M M I I M a z z a a a p p i 0 N ^ a a N a q a a a z N N d a R 3.i w a 7 u q w i g a i w i g i i w 0 7 7 0 q ",
"i i i i i i i g a a g g g M M M z a a a p N Y 0 N N a a a a a M a a a a a a d d a <.q N p N q M a a a a a a z M G i 7 1 q i i q ",
"w i i q 0 0 0 w a a a i i i i i M a N a p M N 0 3.4.+.^ N M M N i i i i a a a a p ^ a ^ a ^ p ^ a a z M M I I G i q 8 q w i i w ",
"w i g g g M M I +._ R R I I M M ..M Y N a d Y u a a p p i a a a d M M M M L R R q ^ a ^ N K a K a a a a z z N N q p a z a a a a ",
"p a N I M g z M a a a p p i i i 0 1 3 0 < 1 3 - ; ; ; ; < 1 1 3 ; ; ; : 1 3 7 7 p N s z z z t K z a p p p p a z w z ^ K a w w a ",
"q q q 0 1 * & % & % & & & & & & 0 3 u a 0 u i 0 u u 0 3 1 ; - - - = - - - ; ; ; p z a p K F z &.K z t q 8 w a z a G -.G w 7 7 8 ",
"< 1 1 1 < < < < 1 1 1 1 0 0 q q d a ..7...} <...d d d a u u 0 0 u y y 0 0 q u q p p a t r.2.=.2.-.K a w q t g x -.,.,._ z w 8 8 ",
"4 q q r p a s N F F E $.;.<.4.4.u 4 d <.f a d a p a a d d d d d u y y 0 0 0 0 q a p z a j.5.=.z z z a t t a z z _ _ -.,.,.G t 7 ",
"s a a p t t a a s z F F K ^ $.<.p u Y 8...d d a d d d d d d a a L L d d a a a a a a z a z.=.z 2 t t t a a a a a a a a K ,.) q * ",
"z a a t t t t t t a z z z z ^ <.> 8.a.Y <.<.d f d d a a a a a d N R R G M a a z z a z 3.3.N a G a a a a a a a a I g a z M g q 1 ",
"a a t t t g j z z x ) K K ) =.0.1 8.3.u u a p f ..E Y f d a a a a z N K N N ^ -.a w a ,.,.z p z a a a g a a a a i i a M M M q 1 ",
"a a a a g g x x t t a a t t g x 1 5.j.5.3.4.^ <.f a a p p q q r 7 0 q q q q t p a w a -.<.z a z R R R R R R R I i a M R I a q 7 ",
"z z j g g g a a j j x z z z x G > p E N f a p q p p p p p p p p 8 0 0 0 1 1 1 7 a p a N K z z K a a i i i i i i R +.@.R M i 7 1 ",
"z z z z z a a a z g g z z z z z a q 1 < & < 0 0 N N N N N N E ^ N G G N a a a a a t q w p p z K z z z a a a a a +.+.R M i 7 1 1 ",
"t t a a a a a g a a t a g z a a ^ p f ;.F ^ 3.<.<.<.$.^ ^ ^ ^ ^ G ^ -.-.^ ^ _ <.p q 8 1 1 8 q t M M M M M M M M i i q 0 7 7 7 7 ",
"7 8 8 8 q q 8 8 g a a z G K x z 1 1 2.v.j.a.r.^ F N N s a s s s p a z N N N ^ -.p w 0 1 , , , * & & & & & * ; ; 1 ; ; 1 7 8 8 7 ",
", , , , , * * & * * * , 1 7 , * q q u.b.a.N K s a a a a a s z N a z K K G K _ <.a a w 7 < & % o o o o @ % % % & ; * & 1 q w q 7 ",
"a a a a a a a a t t w 8 7 1 7 0 q 1 q z.-.K q a z z z z z z z z z z z G _ -.^ K a a p t q 7 1 , 7 & o & & % ; i M I R +.+.G a i ",
"N N N N G K K K N K _ -.<.3.a.p.a 1 q u.5.-.z z z z z K K K N F N N N N K K N z z z a a t q 7 1 1 ; & * * * 7 i i a I R +.+.+._ ",
"a a a a N N N R a a z z M N ^ _ $.1 8 z r.-.-.s K K K K K K K K K N N N N z a p z z z a a w 8 8 1 7 7 ; ; 7 w i z M I R R R R G ",
"p p p p a a a a N N G N a a a z r.8 q t a.2.u.F -.-.K z z z z K G N z a z z a p a a a a p w q 8 1 q q ; * w M a M M M M z a a a ",
"N N N M M M M M N R ^ <.<.<.4.3.e.e t r r.e.x.w.r.2.K j a t j z z a a a z z z a a a z z a p w q 7 i q & ; a _ I a a a g z M M M ",
"G G N N N N N N a a N N N N N K z q t e z 2.k.r.r.2.-.v j a j j a a p a z z z z a z z N z a a p i a 8 ; 7 R 4.R R R I I M M M z ",
"M M M N N N N Y ..<.<...Y d a a q t a t 1 s -.-.=.=.2.2.-.K z j z a a a a z z z a a z z z z a a a i 0 0 g 4.4.R +.+.R R M M a i ",
"M M N N N ^ ^ ^ N N R N a p i q a 2.-.-.$ t a v K -.w.u.r.=.v z N z a a a z z a p p a a a a a p a i q p <.a.7.G a a d N Y N Y N ",
"N N G N z a p w 0 % 8 7 1 p N 0.r.r.2.F a r t a s a a s F F F K G N N N ^ R M p p p p p p a a a a q u 0 p 7.h.<.f E } f f Y f d ",
"8 8 7 1 , * * * 1 * _ r.,.,.z z N K F z s a t a q r a K -.K s t a a a a M a a p a a a a a a a a q p f u - 4 f Y 4.7.7.;.E } E f ",
", , 1 7 q a x _ t 7 _ 2.K _ g z t t a z z s t q t q 8 8 q t a a p p a M ^ <.<.+.a a a p p p p p < q ..E 1 - 1 - d d a 0 1 < & O ",
",.-._ K G G G G _ q z a q z z _ t t a z v z t q -.K a q p K 2.5.a.3.^ p 7 & o   & & & % & % % & p q a N a p q & O & 1 0 a ^ 4.4.",
"^ K G N a t q 0 z 0 K _ N _ z N a a a a z F s a r a N K -.2.$.s p p p a a a a N 7 1 1 1 1 1 1 7 a.r 0 p f $.3.-.p.p.a.<.^ K N a ",
"q w a a a a a a a 1 N ^ N -.z z a a a a z F ^ ^ q a a t a ^ ^ a v.c.j.a.<.N M a <.<.<.<.<.<.<.<.s q a a.5.<.a.u.z K ^ K ^ <.2.<.",
"4.,.+.R z p q 8 a 1 p p i N a N p a a a a M N ^ 4.4.N q p 3.s.p.N R ^ N N N R ^ ^ R N N M M M N q 1 G k.u.K G K r.a.0.-.G G z a ",
"a p p p q p p a p < a N M ^ p i p a N M a p p a p a a q i ^ <.G a a M a p p a M ^ R N M a a a a 3.8 8 G z t a z G K K z z x G g ",
"N M p q i a a i & 1 q M ^ R M a N N M z a a i i i a q 1 q M +.R M a p p p p a M N R ^ R M a p a +.w 7 a z w a _ a a g z z G G G ",
"q p q 1 < < & & < < & & ; < 1 1 1 1 1 1 1 1 1 1 1 1 ; & 0 M R M a a a p p p a a N ^ ^ ^ N z a a G 1 * w _ G z _ _ _ G G z z a a ",
"% - - % O - 0 u q 0 1 - & & - < % % % % % % % % & & % % 0 O.o.L a a a a p p p p N R ^ ^ N M N N G 1 & w @.,.I z g a w 8 7 1 ; * ",
"o o     % u <.f.^ ......Y d i u 0 7 7 1 ; - & % & & % & u o.6.L a a a a a p p p a M N N M a M N _ 7 % 1 a w 7 1 & # % @ @ o o . ",
"- - O O 3 f 6.6...<.8.f.a.7...f Y L d i u 0 0 3 ; ; = - u @.@.a a a a a a a a p a a a a a a a M G 7 % % % @ . . . . o o % % % % ",
"1 1 ; 3 a Y d u d d d Y Y Y Y L L L M d i i u u u u 3 : u O.@.a d a a a a d M M a a a a a a d M Y q ; % % O % % & ; - ; ; ; ; ; ",
"3 3 4 u d Y d u p u u u i a a d a i i i i i i i d d u 0 u I O.M M d a a d N R ^ R R R N M M N ^ R i 0 3 3 3 0 0 0 0 0 0 y y y 0 ",
"d d a u u d Y d a d d d d d d i i i i i i i i i i i u ; 3 i M i N M a a d N ^ <.<.<.<.^ ^ R ^ ,.L i 0 0 0 u y 0 i i i i d d d d "
};
